<svg id="svg_logo" xmlns="http://www.w3.org/2000/svg" viewBox="0 0 78 85.6">
	<defs>
		<style>
			#svg_logo{
				fill: #2d9ef8;
			}
			.cls-1 {
				fill: inherit;
			}
			#svg_g{
				fill: inherit;
			}
		</style>
	</defs>
	<title>logo</title>
	<g id="svg_g" data-name="svg_g">
		<path class="cls-1" d="M70.52,66.95c-6.12,1.5-17.25,3.49-28.78,2.1C32.28,67.91,30,61.49,30,61.49l-.29-.73H10.21C3.47,60.31.77,56.91,0,54.75v3.11c0,8.2,5.88,10.52,5.88,10.52S26.47,80.45,32,84c3.73,2.38,8.08,1.57,10.55.78a11.39,11.39,0,0,0,2-.78s26.67-15.67,27.09-15.9C72.46,67.69,73.16,66.3,70.52,66.95Zm-32.25,18,.28.08Zm.61.16.32,0Zm.62.09.32,0Zm.63,0h0ZM41.58,85l-.18,0Zm-.56.09-.26,0Zm1-.19h0Z"/>
		<path class="cls-1" d="M74.36,18.66a6.44,6.44,0,0,1,1,3.65,6.45,6.45,0,0,0-1-3.65,4.06,4.06,0,0,0-.85-.57L46,2.3A11.69,11.69,0,0,0,32,2.3L4.49,18.09s-2.78,1.27-4,6.11c0-.13.06-.28.1-.41A11.23,11.23,0,0,0,0,27.53v1.22A21.75,21.75,0,0,1,.19,26,22.16,22.16,0,0,0,0,28.92V49.49a8.92,8.92,0,0,0,4.39,7.11l0,0,.07.06a16.3,16.3,0,0,0,8.57,2H23.75c1.08,0,1.52-.79.48-1.44a13.75,13.75,0,0,1,2.35-24.26l-.14.06.16-.07a15.62,15.62,0,0,1,14.24-9.63c8.31,0,15.1,6.8,15.61,15.39v0A12.24,12.24,0,0,1,60,47.38,12.08,12.08,0,0,1,54.51,57.6c-.63.41-.33,1,.44,1H65c13,0,13-9.13,13-9.13V28.92C78,22.55,75.66,19.74,74.36,18.66Zm-74,6.1c-.05.25-.09.51-.13.77C.3,25.27.35,25,.4,24.76Zm2,25.31a10.1,10.1,0,0,0,.07,2.37A10,10,0,0,1,2.43,50.07ZM4,56.27l0,0ZM2.5,52.46a9.94,9.94,0,0,0,.21,1A9.81,9.81,0,0,1,2.5,52.46Zm.27,1.24c.07.24.14.49.22.71C2.91,54.18,2.84,53.94,2.77,53.7Zm.4,1.11c.05.13.11.26.16.37C3.27,55.07,3.22,54.94,3.16,54.81Zm.45.87.08.14Z"/>
	</g>
</svg>